<?xml version="1.0" encoding="UTF-8"?>
<svg id="_图层_1" data-name="图层 1" xmlns="http://www.w3.org/2000/svg" version="1.1" xmlns:inkscape="http://www.inkscape.org/namespaces/inkscape" xmlns:sodipodi="http://sodipodi.sourceforge.net/DTD/sodipodi-0.dtd" xmlns:svg="http://www.w3.org/2000/svg" xmlns:xlink="http://www.w3.org/1999/xlink" viewBox="0 0 364.3 121.6">
  <defs>
    <style>
      .cls-1 {
        fill: none;
      }

      .cls-1, .cls-2, .cls-3 {
        stroke-width: 0px;
      }

      .cls-2 {
        fill: #1b427d;
      }

      .cls-4 {
        clip-path: url(#clippath);
      }

      .cls-3 {
        fill: #fff;
      }
    </style>
    <clipPath id="clippath">
      <rect class="cls-1" x="-42" y="-7.7" width="422.8" height="173.6"/>
    </clipPath>
  </defs>
  <sodipodi:namedview id="namedview8565" bordercolor="#000000" borderopacity="0.25" inkscape:current-layer="g8571" inkscape:cx="165.03213" inkscape:cy="-292.53359" inkscape:deskcolor="#d1d1d1" inkscape:pagecheckerboard="0" inkscape:pageopacity="0.0" inkscape:showpageshadow="2" inkscape:window-height="1205" inkscape:window-maximized="0" inkscape:window-width="1419" inkscape:window-x="667" inkscape:window-y="318" inkscape:zoom="0.97253788" pagecolor="#ffffff" showgrid="false">
    <inkscape:page id="page8569" x="0" y="0" width="364.258" height="121.557"/>
  </sodipodi:namedview>
  <rect class="cls-2" width="364.3" height="121.6"/>
  <g id="g8571" inkscape:groupmode="layer" inkscape:label="Page 1">
    <g id="g8591">
      <g class="cls-4">
        <g id="g8593">
          <g id="g8599">
            <path id="path8601" class="cls-3" d="M252.3,67.2c-5,0-8.5-4.3-8.5-9.4h0c0-5.2,3.6-9.4,8.5-9.4s5.2,1.3,7.5,3.4l4.1-4.8c-2.7-2.7-6-4.6-11.6-4.6-9,0-15.3,7-15.3,15.5h0c0,8.7,6.4,15.5,15.1,15.5s9-2.1,12-5.3l-4.1-4.2c-2.3,2.1-4.4,3.5-7.7,3.5"/>
          </g>
          <g id="g8603">
            <path id="path8605" class="cls-3" d="M279.3,63.9l-7.7-21.1h-7.1l11.9,30.1h5.7l11.9-30.1h-7l-7.7,21.1h0Z"/>
          </g>
          <g id="g8607">
            <path id="path8609" class="cls-3" d="M302.8,48.8h5c3.2,0,5.2,1.6,5.2,4.5h0c0,2.7-1.9,4.6-5.1,4.6h-5.1s0-9.1,0-9.1ZM302.8,63.8h4.9c6.6,0,11.9-3.6,11.9-10.5h0c0-6.2-4.2-10.4-11.2-10.4h-12v29.9h6.5v-9h0Z"/>
          </g>
          <g id="g8611">
            <path id="path8613" class="cls-3" d="M328.8,48.8h6.4c3.1,0,5.1,1.5,5.1,4.3h0c0,2.6-1.8,4.3-5,4.3h-6.5s0-8.6,0-8.6ZM328.8,63.2h5.1l6.3,9.6h7.6l-7.2-10.7c3.7-1.4,6.3-4.4,6.3-9.3h0c0-2.9-.9-5.3-2.5-6.9-1.9-2-4.8-3-8.6-3h-13.4v29.9h6.5v-9.6h0Z"/>
          </g>
          <g id="g8615">
            <path id="path8617" class="cls-3" d="M240.5,83.3c0,1-.5,1.5-1.2,1.5s-1.1-.3-1.6-.9l-1.2,1.4c.6.7,1.5,1.3,2.9,1.3s1.8-.3,2.3-.8.8-1.3.8-2.4v-5.8h-2v5.7Z"/>
          </g>
          <g id="g8619">
            <path id="path8621" class="cls-3" d="M250.2,82.6c0,1.4-.7,2.1-1.9,2.1s-1.9-.7-1.9-2.2v-5h-2v5.1c0,2.6,1.5,3.9,3.8,3.9s3.9-1.3,3.9-4v-5h-2v5.1h0Z"/>
          </g>
          <g id="g8623">
            <path id="path8625" class="cls-3" d="M260.1,83l-4.2-5.5h-1.8v8.9h1.9v-5.6l4.3,5.6h1.7v-8.9h-1.9v5.5Z"/>
          </g>
          <g id="g8627">
            <path id="path8629" class="cls-3" d="M266.1,82.8h4.2v-1.7h-4.2v-1.8h4.8v-1.7h-6.7v8.9h6.8v-1.7h-4.8v-1.9h0Z"/>
          </g>
          <g id="g8631">
            <path id="path8633" class="cls-3" d="M275.8,78.2l.4,1.6,1.6-.4v7h1.9v-8.9h-1.3l-2.6.8h0Z"/>
          </g>
          <g id="g8635">
            <path id="path8637" class="cls-3" d="M281.7,79.2h4.2l-4,7.2h2.2l4-7.4v-1.5h-6.4v1.7h0Z"/>
          </g>
          <path id="path8639" class="cls-3" d="M288.9,83.4h3.9v-1.9h-3.9v1.9Z"/>
          <g id="g8641">
            <path id="path8643" class="cls-3" d="M298.3,83.6c1.6-1.2,2.3-2,2.3-3.4h0c0-1.7-1.2-2.8-3.1-2.8s-2.4.6-3.3,1.8l1.4,1.1c.7-.8,1.1-1.2,1.8-1.2s1.2.4,1.2,1.2-.4,1.2-1.5,2.1l-3,2.4v1.5h6.6v-1.7h-3.9l1.4-1.1h.1Z"/>
          </g>
          <g id="g8645">
            <path id="path8647" class="cls-3" d="M301.7,78.2l.4,1.6,1.5-.4v7h1.9v-8.9h-1.3l-2.6.8h.1Z"/>
          </g>
          <g id="g8649">
            <path id="path8651" class="cls-3" d="M307.6,86.4h.8c0,.7-.4,1.2-1.2,1.3l.2.8c1.5,0,2.4-.7,2.4-2.4v-1.7h-2.1v2h0Z"/>
          </g>
          <g id="g8653">
            <path id="path8655" class="cls-3" d="M319,83.6c1.6-1.2,2.3-2,2.3-3.4h0c0-1.7-1.2-2.8-3.1-2.8s-2.4.6-3.3,1.8l1.4,1.1c.7-.8,1.1-1.2,1.8-1.2s1.2.4,1.2,1.2-.4,1.2-1.5,2.1l-3,2.4v1.5h6.6v-1.7h-3.9l1.4-1.1h.1Z"/>
          </g>
          <g id="g8657">
            <path id="path8659" class="cls-3" d="M328.7,82c0,1.6-.7,2.8-1.9,2.8s-2-1.2-2-2.8h0c0-1.6.8-2.8,1.9-2.8s2,1.2,2,2.8h0ZM326.8,77.4c-2.4,0-4,2-4,4.6h0c0,2.6,1.6,4.6,3.9,4.6s4-2,4-4.6h0c0-2.6-1.6-4.6-3.9-4.6"/>
          </g>
          <g id="g8661">
            <path id="path8663" class="cls-3" d="M336.1,83.6c1.6-1.2,2.3-2,2.3-3.4h0c0-1.7-1.2-2.8-3.1-2.8s-2.4.6-3.3,1.8l1.4,1.1c.7-.8,1.1-1.2,1.8-1.2s1.2.4,1.2,1.2-.4,1.2-1.5,2.1l-3,2.4v1.5h6.6v-1.7h-3.9l1.4-1.1h.1Z"/>
          </g>
          <g id="g8665">
            <path id="path8667" class="cls-3" d="M344.1,82.9h-2.4l2.4-2.8v2.8ZM345.9,77.5h-1.7l-4.9,5.6.3,1.4h4.3v1.9h1.9v-1.9h1.2v-1.6h-1.2v-5.4h.1Z"/>
          </g>
          <g id="g8669">
            <path id="path8671" class="cls-3" d="M63.2,9.9h0v-.5c-.2,0-.3-.2-.5-.2.2,0,.3.2.5.2v.5Z"/>
          </g>
          <g id="g8673">
            <path id="path8675" class="cls-3" d="M57.3,10.4h0v-.2c.2,0,.4-.2.6-.2-.2,0-.4.1-.6.2v.2Z"/>
          </g>
          <path id="path8677" class="cls-3" d="M59.5,8.7h0v.4h0v-.4Z"/>
          <g id="g8679">
            <path id="path8681" class="cls-3" d="M61.4,8.4c0-.1-.3,0-.4-.2,0-1,0-2,0-3,0,1,0,2,0,3,0,.2.3,0,.4.2"/>
          </g>
          <path id="path8683" class="cls-3" d="M187.6,68.9h-1.5,1.5Z"/>
          <g id="g8685">
            <path id="path8687" class="cls-3" d="M187.5,69.9h-1.3,1.3Z"/>
          </g>
          <g id="g8689">
            <path id="path8691" class="cls-3" d="M187.6,67.8h-1.5,1.5Z"/>
          </g>
          <path id="path8693" class="cls-3" d="M176.3,63.1h-1,1Z"/>
          <path id="path8695" class="cls-3" d="M187.6,64.8h-1.5,1.5Z"/>
          <path id="path8697" class="cls-3" d="M184,68.9h-.8.8Z"/>
          <g id="g8699">
            <path id="path8701" class="cls-3" d="M171.7,57.1h0v1.8-1.8Z"/>
          </g>
          <path id="path8703" class="cls-3" d="M184,64.8h-1.5,1.5Z"/>
          <g id="g8705">
            <path id="path8707" class="cls-3" d="M184,67.8h-1.5,1.5Z"/>
          </g>
          <g id="g8709">
            <path id="path8711" class="cls-3" d="M176.7,54.2v-1.1,1.1Z"/>
          </g>
          <g id="g8713">
            <path id="path8715" class="cls-3" d="M64.3,12.3h-.2.2"/>
          </g>
          <g id="g8717">
            <path id="path8719" class="cls-3" d="M153.4,63.7l-1.2,5.6v.3l1.1-.3h.3c.2,0,.5,0,.8-.2l.3-1.2-1.2-4.1h-.1"/>
          </g>
          <g id="g8721">
            <path id="path8723" class="cls-3" d="M155,68.7v-.4c-.1,0-.2.4-.2.4h.2"/>
          </g>
          <g id="g8725">
            <path id="path8727" class="cls-3" d="M155.1,67.7l.3.9c.6,0,1.3-.3,2-.4l.3-1.3-1.2-4.3-1.3,5.1h-.1Z"/>
          </g>
          <g id="g8729">
            <path id="path8731" class="cls-3" d="M149.9,65.5c-.6.4-1.3.8-1.9,1.3l.3.9.6,2.1,1-4.3h0Z"/>
          </g>
          <g id="g8733">
            <path id="path8735" class="cls-3" d="M162.3,61.9v.2h0v-.2Z"/>
          </g>
          <g id="g8737">
            <path id="path8739" class="cls-3" d="M173.9,64h-.2l-.9,4,.2.5c.7,0,1.4.3,2.1.4l-1.2-4.8h0Z"/>
          </g>
          <g id="g8741">
            <path id="path8743" class="cls-3" d="M151.8,69.2l-1.2-4.1h-.2c0,0-1.2,5.3-1.2,5.3l2.6-.7v-.5h0Z"/>
          </g>
          <g id="g8745">
            <path id="path8747" class="cls-3" d="M151.9,68.5l1-4.7c-.7.3-1.4.7-2.1,1.1l1.1,3.6Z"/>
          </g>
          <g id="g8749">
            <path id="path8751" class="cls-3" d="M170.2,67.9c.7,0,1.4.2,2.2.3v-.4l-1.4-5.1-1.1,4.1.3,1h0Z"/>
          </g>
          <g id="g8753">
            <path id="path8755" class="cls-3" d="M169.8,67.9h0Z"/>
          </g>
          <g id="g8757">
            <path id="path8759" class="cls-3" d="M162.1,62.7l-.8,3.1h.6v-.6h1.5v.6h.3l-1-3.1h-.6Z"/>
          </g>
          <g id="g8761">
            <path id="path8763" class="cls-3" d="M172.3,65.9l.3,1.2.7-3.4c-.6-.3-1.3-.6-1.9-.8,0,0,.9,3,.9,3Z"/>
          </g>
          <g id="g8765">
            <path id="path8767" class="cls-3" d="M164.8,63.4h.5v.6h-.6l-.4,1.8h1.2v1.9h1l.3-1.3-1.5-4.9-.4,1.9h-.1Z"/>
          </g>
          <g id="g8769">
            <path id="path8771" class="cls-3" d="M167.9,64.6v.6h-.6l-.3,1.1.3.9v.4h1.4v-3.6l-.6-2.3-.7,2.7h.4v.2Z"/>
          </g>
          <g id="g8773">
            <path id="path8775" class="cls-3" d="M166.8,67.6h.3l-.2-.6-.2.6h0Z"/>
          </g>
          <g id="g8777">
            <path id="path8779" class="cls-3" d="M146,71.3h.3l.7-3.7c-.6.5-1.2,1-1.8,1.5l.8,2.3h0Z"/>
          </g>
          <g id="g8781">
            <path id="path8783" class="cls-3" d="M166.3,63.6l.3,1h.6l.7-2.8c-.7-.2-1.5-.3-2.2-.4l.7,2.3h-.1Z"/>
          </g>
          <g id="g8785">
            <path id="path8787" class="cls-3" d="M162.5,61.2l.3.8h.6v.6h-.4l1,2.9.4-1.5h-.5v-.6h.7l.5-2.1c-.4,0-.7,0-1.1,0h-1.5Z"/>
          </g>
          <g id="g8789">
            <path id="path8791" class="cls-3" d="M161.9,62.2h0c0,0,.2-.9.2-.9h0c-.7,0-1.5.2-2.5.4l1.4,4.1.9-3.6h0Z"/>
          </g>
          <g id="g8793">
            <path id="path8795" class="cls-3" d="M158,66.9l.4,1.2h.5v-2.4h1.7l-1.3-4-1.3,5.1h0Z"/>
          </g>
          <g id="g8797">
            <path id="path8799" class="cls-3" d="M170.7,62.6c-.2,0-.5,0-.7-.2h-.2v3.6l.9-3.3h0Z"/>
          </g>
          <g id="g8801">
            <path id="path8803" class="cls-3" d="M168.8,62.1h-.3l.3,1v-.9h0Z"/>
          </g>
          <g id="g8805">
            <path id="path8807" class="cls-3" d="M166.8,65.4v.3l.2-.4h-.2Z"/>
          </g>
          <g id="g8809">
            <path id="path8811" class="cls-3" d="M157.8,66.3l1.1-4.5c-.7.2-1.4.4-2.2.6l1.1,3.9h0Z"/>
          </g>
          <g id="g8813">
            <path id="path8815" class="cls-3" d="M157.7,68.2h.3l-.2-.6-.2.6h0Z"/>
          </g>
          <g id="g8817">
            <path id="path8819" class="cls-3" d="M144.9,69.3l-.5.5-.4,2.1,1.6-.5-.7-2.1h0Z"/>
          </g>
          <g id="g8821">
            <path id="path8823" class="cls-3" d="M154.6,66.3l.3.8,1.2-4.5c-.7.2-1.5.5-2.3.9,0,0,.8,2.8.8,2.8Z"/>
          </g>
          <g id="g8825">
            <path id="path8827" class="cls-3" d="M144,70.2h0Z"/>
          </g>
          <g id="g8829">
            <path id="path8831" class="cls-3" d="M199.8,62.1l-1.1,4.7.2.6c.6,0,1.3-.2,2-.3l.2-1.1-1.1-4s-.1,0-.2,0"/>
          </g>
          <g id="g8833">
            <path id="path8835" class="cls-3" d="M201.3,66.8v.3h0v-.2h0Z"/>
          </g>
          <g id="g8837">
            <path id="path8839" class="cls-3" d="M202.8,60.8h-.2l-1.1,5.1.3,1c.6,0,1.2,0,1.9-.2l.4-1.8-1.2-4.2h0Z"/>
          </g>
          <g id="g8841">
            <path id="path8843" class="cls-3" d="M204.2,65.8l-.3,1.1h.6v-.2l-.3-.9Z"/>
          </g>
          <g id="g8845">
            <path id="path8847" class="cls-3" d="M192.8,69c.2,0,.3,0,.5-.2v-2c-.3.3-.6.6-.9.9v.3s.4,1,.4,1Z"/>
          </g>
          <g id="g8849">
            <path id="path8851" class="cls-3" d="M199.4,62.4c-.6.3-1.1.6-1.7,1l.8,2.8s.9-3.8.9-3.8Z"/>
          </g>
          <g id="g8853">
            <path id="path8855" class="cls-3" d="M197,63.8l-.4,1.9v2.2c.5,0,1-.2,1.6-.3l.2-.7-.7-2.3-.3-1c-.1,0-.2.2-.4.2"/>
          </g>
          <g id="g8857">
            <path id="path8859" class="cls-3" d="M212.2,67h.9l-.5-1.9-.4,1.8h0Z"/>
          </g>
          <g id="g8861">
            <path id="path8863" class="cls-3" d="M192.2,68.3v-.3c-.3.3-.6.5-.8.8v.8c.3,0,.7-.3,1.1-.5l-.3-.9h0Z"/>
          </g>
          <g id="g8865">
            <path id="path8867" class="cls-3" d="M211,59.8l-1.1,4.7.6,2.4h1.2l.5-2.5-1.4-4.7h0"/>
          </g>
          <g id="g8869">
            <path id="path8871" class="cls-3" d="M213.6,60.4l-.8,4.1.2.6.6,2.1h.1v-6.7h-.1"/>
          </g>
          <g id="g8873">
            <path id="path8875" class="cls-3" d="M209.4,66.8h.8l-.4-1.7-.4,1.6h0Z"/>
          </g>
          <g id="g8877">
            <path id="path8879" class="cls-3" d="M206.6,66.8h.9l-.5-1.7-.4,1.7Z"/>
          </g>
          <g id="g8881">
            <path id="path8883" class="cls-3" d="M208,61h.4v1h-.7l-.3,1.2h1v1h-1v-.8l-.3,1.1.7,2.3h1.3l.5-2.4-1.3-4.8-.3,1.2v.2Z"/>
          </g>
          <g id="g8885">
            <path id="path8887" class="cls-3" d="M206.8,64.5v-.4h-1.1v-1h.7l-.3-1.2h-.4v-1h.1l-.3-.9h0l-1.2,5,.4,1.3.2.5h1.3l.6-2.3Z"/>
          </g>
          <g id="g8889">
            <path id="path8891" class="cls-3" d="M208.7,59.6l1.1,4.1.9-4h0s-.7,0-1.9,0"/>
          </g>
          <g id="g8893">
            <path id="path8895" class="cls-3" d="M180.9,70.6l.6-1.3c-.5-.5-1.1-1.1-1.8-1.6l.7,2.7c.2,0,.4,0,.6.2"/>
          </g>
          <g id="g8897">
            <path id="path8899" class="cls-3" d="M178.3,69.7c.5.2,1.1.4,1.6.6l-.7-2.9h-.1l-.8,2.4h0Z"/>
          </g>
          <g id="g8901">
            <path id="path8903" class="cls-3" d="M182,69.8s-.1-.2-.2-.2l-.5,1.2c.3,0,.7.3,1,.4l-.2-1.1v-.3h-.1Z"/>
          </g>
          <g id="g8905">
            <path id="path8907" class="cls-3" d="M178.3,67.9h-.8l.4,1.7h0l.8-2.6c-.2,0-.3-.3-.5-.4v1.2h.1Z"/>
          </g>
          <g id="g8909">
            <path id="path8911" class="cls-3" d="M176.5,65.4l-.3.8v1.6h-.5l-.3,1h0c.7.2,1.3.4,2,.6l-.9-4h0"/>
          </g>
          <g id="g8913">
            <path id="path8915" class="cls-3" d="M182.9,71.5c.3.2.6.3.9.4,0,0-.1,0-.3-.4h-.6,0Z"/>
          </g>
          <g id="g8917">
            <path id="path8919" class="cls-3" d="M177.4,66c-.1,0-.3-.2-.4-.3l.2,1v.3-1h.2Z"/>
          </g>
          <g id="g8921">
            <path id="path8923" class="cls-3" d="M206.7,61v1h-.3l.5,1.9.5-1.9v-.9h.2l.3-1.3c-.6,0-1.3,0-2.1.3l.2.8v.2h.7Z"/>
          </g>
          <g id="g8925">
            <path id="path8927" class="cls-3" d="M204.2,64.4l1-4.3c-.6.2-1.3.3-2.1.6l1.1,3.7Z"/>
          </g>
          <g id="g8929">
            <path id="path8931" class="cls-3" d="M201.2,65.3l.9-4.2c-.6.2-1.2.5-1.8.8l.9,3.4h0Z"/>
          </g>
          <g id="g8933">
            <path id="path8935" class="cls-3" d="M183,70.9c-.1-.2-.3-.3-.4-.5h0c0,0,0,.5,0,.5h.5-.1Z"/>
          </g>
          <g id="g8937">
            <path id="path8939" class="cls-3" d="M191,69.3c-.3.3-.5.6-.8.9,0,0,.3-.2.8-.4v-.5Z"/>
          </g>
          <g id="g8941">
            <path id="path8943" class="cls-3" d="M213.2,60.3c-.6-.2-1.2-.3-1.8-.5l1.1,3.9.7-3.4Z"/>
          </g>
          <g id="g8945">
            <path id="path8947" class="cls-3" d="M175.3,64.9v-.2c-.3-.2-.6-.4-1-.5l1,4.1v-.4c.1,0,0,0,0,0v-1.8h.7l.2-.8c-.2,0-.4-.2-.6-.4h-.4.1Z"/>
          </g>
          <g id="g8949">
            <path id="path8951" class="cls-3" d="M147.7,67s-.2.2-.3.2l-.8,3.9,2.1-.6h0l-.7-2.5-.3-1.1h0Z"/>
          </g>
          <g id="g8953">
            <path id="path8955" class="cls-3" d="M182.5,70.4h0Z"/>
          </g>
          <g id="g8957">
            <path id="path8959" class="cls-3" d="M161.9,62.2h0c0,0,0,0,0,0Z"/>
          </g>
          <g id="g8961">
            <path id="path8963" class="cls-3" d="M63.7,10.5c-.7-.4-1.8-.5-2.8-.6-.9,0-1.6,0-2.3.2-.4,0-.9,0-1.1.4.2.2.7.4.8.8,0,.4-.2.7-.6.8,1.8-.1,4.1-.1,6.2,0-.2-.2-1-.3-1-.7s.6-.6.9-1"/>
          </g>
          <g id="g8965">
            <path id="path8967" class="cls-3" d="M52.4,16.7c0-.1-.3-.4-.2-.7.2-.4,1.1-.8,1.8-1,2.1-.6,4.3-.6,6.9-.6s4.8,0,6.8.6c.6.1,1.6.4,1.6.9s-.2.5-.5.8c.9-.2,1.8-.3,2.2-.8,0-.1,0-.2,0-.4,0,0,0-.2,0-.3-.6-.6-1.1-.7-1.8-1v-.6c-.3-.4-.9-.5-1.5-.7-.5-.2-1.3-.4-1.9-.5h-.2c.5,0,.3.7.2,1.1h-.3c0-.4.2-1.2-.3-1.1.4,0,.3.5.2,1.1h-.4c0-.3.2-.9,0-1h0c.2.2,0,.7,0,1.1h-.3c0-.4.2-.8,0-1h0c.2.3,0,.8,0,1.1h-.4c0-.3.2-.9,0-1h0c0,.2,0,.6,0,1.1h-.4v-1h.2-.4c0,0,0,.7,0,1.1h-.5v-1h0v1h-.9v-1.1h0v1.1h-1v-1.1s.2,0,0,0c-.2,0-.8,0-.7,0h.4v1h-.9v-1.1c-1.3,0-2.1.1-3.3.2,0,.1,0,0,.2,0h.7v1c-.3,0-.5,0-.9.1,0-.3,0-.7,0-1h-.3c.3,0,.2.6.3,1-.3,0-.6.1-.8.1,0-1.1,0-1-.2-1v1c-.3,0-.4,0-.7.1v-.9c.2,0,.3-.1.6-.2.3,0,.9-.2.7-.2-1.2.3-2.7.7-3.8,1.2v.7c-.7.3-1.5.4-1.8,1v.2c.4.7,1.3.8,2.1,1.1"/>
          </g>
          <g id="g8969">
            <path id="path8971" class="cls-3" d="M64.3,14.9c-1.7-.1-3.6-.2-5.9,0-.7,0-1.3,0-2.6.2-1.3.1-3.9.6-2.9,1.8,4.3-1.5,10.9-1.5,15.2-.3.5,0,1-.2.9-.5-.4-.8-3.1-1.1-4.6-1.2"/>
          </g>
          <g id="g8973">
            <path id="path8975" class="cls-3" d="M57.3,10.4v-.2c.2,0,.4-.2.6-.2.6-.2,1.4-.3,2.2-.3h.8c.5,0,1.1,0,1.6.1.2,0,.5,0,.7.1v-.5c-.2,0-.3-.2-.5-.2s-.4-.1-.6-.1v-.4h-.2c0,0,0,.4-.2.4l-.2-.6c0-.1-.3,0-.4-.2,0-1,0-2,0-3,0-1,0-2-.2-2.9h0c0,2,0,4-.2,6.1,0,0-.3,0-.4.1v.6h-.5v-.4h-.9c0,.6-.4.6-.4,1-.3,0-.6.1-.8.3v.2h0c0,.1-.3,0-.3,0Z"/>
          </g>
          <g id="g8977">
            <path id="path8979" class="cls-3" d="M62.7,12.2h-.8.8"/>
          </g>
          <g id="g8981">
            <path id="path8983" class="cls-3" d="M222.2,82.8h2.4l-1.2-2.9-1.2,2.9Z"/>
          </g>
          <g id="g8985">
            <path id="path8987" class="cls-3" d="M159.9,82.8h2.4l-1.2-2.9-1.2,2.9Z"/>
          </g>
          <g id="g8989">
            <path id="path8991" class="cls-3" d="M115.4,73.4l-1-.4c0,.5.3,1,.4,1.6l.6-1.2Z"/>
          </g>
          <g id="g8993">
            <path id="path8995" class="cls-3" d="M114.6,76.2v13.6h.9v-5.8c0-.2.2-2.2.8-4.4-.5-1.3-1.1-2.4-1.7-3.5"/>
          </g>
          <g id="g8997">
            <path id="path8999" class="cls-3" d="M115,72.5c0,0-.2,0-.3,0h-.3l.9.3c0,0-.2-.2-.3-.3"/>
          </g>
          <g id="g9001">
            <path id="path9003" class="cls-3" d="M109.1,72.9c.4.2.7.3,1,.5,0-.2,0-.4-.2-.6-.3,0-.6,0-.8-.2v.3"/>
          </g>
          <g id="g9005">
            <path id="path9007" class="cls-3" d="M112.8,73.9c0,0,0-.2,0-.3-.2-.2-.3-.4-.5-.6h0l.7.9h0"/>
          </g>
          <g id="g9009">
            <path id="path9011" class="cls-3" d="M109.3,71c0,.3,0,.7,0,1.1.2,0,.4,0,.6,0,0-.5-.3-.9-.4-1.2h0Z"/>
          </g>
          <g id="g9013">
            <path id="path9015" class="cls-3" d="M112.7,72.3h0Z"/>
          </g>
          <g id="g9017">
            <path id="path9019" class="cls-3" d="M112,72.2v-.2h0s.2,0,.2.2"/>
          </g>
          <g id="g9021">
            <path id="path9023" class="cls-3" d="M114.9,75.3l.9.9c.4.4.7,1,1.1,1.7-.3-2.1-.7-3.4-1.1-4.2l-.9,1.6Z"/>
          </g>
          <g id="g9025">
            <path id="path9027" class="cls-3" d="M112.3,71.2c0-.2-.3-.4-.5-.7l-.2-.2c0,.2.3.5.4.7,0,0,.2,0,.2,0"/>
          </g>
          <g id="g9029">
            <path id="path9031" class="cls-3" d="M122.6,74.5c0-.4,0-.8,0-1.1h0v-.3c-.7.3-1.3.7-1.8,1.2.4,0,1,0,1.6.2"/>
          </g>
          <g id="g9033">
            <path id="path9035" class="cls-3" d="M122.9,76.3c0,.2.3.5.4.8h0c.2-.3.4-.6.6-.8-.3-.2-.7-.3-1-.5v.5"/>
          </g>
          <g id="g9037">
            <path id="path9039" class="cls-3" d="M117,79.6c0,0,0-.2,0-.3v.6s0-.2,0-.3"/>
          </g>
          <g id="g9041">
            <path id="path9043" class="cls-3" d="M124.6,73.6h.4-.4"/>
          </g>
          <g id="g9045">
            <path id="path9047" class="cls-3" d="M120.6,74.7h0l.9,1.6c.3,0,.7,0,1,.3v-.2c-.5-.8-1.1-1.3-1.5-1.5-.2,0-.3,0-.4-.2"/>
          </g>
          <g id="g9049">
            <path id="path9051" class="cls-3" d="M123.8,73.8c0,.3.2.7.3,1.1.2,0,.5.2.7.3l-1-1.3h0Z"/>
          </g>
          <g id="g9053">
            <path id="path9055" class="cls-3" d="M116.6,80.6h0c0,.2,0,.3,0,.5,0,0,0-.2,0-.4"/>
          </g>
          <g id="g9057">
            <path id="path9059" class="cls-3" d="M115.4,76.6s0,0,0-.2c.5.8.9,1.6,1.3,2.5,0,0,0-.2,0-.3-.4-.8-.8-1.5-1.2-2"/>
          </g>
          <g id="g9061">
            <path id="path9063" class="cls-3" d="M118.5,75.7v.8c.5-.8,1-1.4,1.5-2-.6.2-1.1.6-1.5,1.1"/>
          </g>
          <g id="g9065">
            <path id="path9067" class="cls-3" d="M119.2,76.4c.3,0,.9-.2,1.6,0l-.7-1.2c-.4.4-.7.9-1,1.3"/>
          </g>
          <g id="g9069">
            <path id="path9071" class="cls-3" d="M107.1,74.7v.2-.3h0"/>
          </g>
          <g id="g9073">
            <path id="path9075" class="cls-3" d="M110.4,74.5c-.2.2-.3.4-.5.7.3.2.5.4.7.7,0-.5-.2-1-.2-1.4"/>
          </g>
          <g id="g9077">
            <path id="path9079" class="cls-3" d="M108.6,73.2s-.2,0-.3,0c0,0,.2.2.2.3v-.2"/>
          </g>
          <g id="g9081">
            <path id="path9083" class="cls-3" d="M109.9,77.5c-.2-.6-.3-1.1-.5-1.5-.4.8-.7,1.8-.9,2.8v.3h0c0,.8,0,1.5-.2,2.3v1.4c0-.8.3-1.9.7-2.9.3-.9.6-1.7.9-2.4"/>
          </g>
          <g id="g9085">
            <path id="path9087" class="cls-3" d="M108.5,74.1c-.2-.3-.4-.5-.6-.8,0,.3,0,.5,0,.8.2,0,.4,0,.7.2v-.2"/>
          </g>
          <g id="g9089">
            <path id="path9091" class="cls-3" d="M111.1,73.2c-.2,0-.3,0-.5-.2,0,.2,0,.3,0,.5,0,0,.3-.2.4-.3"/>
          </g>
          <g id="g9093">
            <path id="path9095" class="cls-3" d="M110.2,76.9c0-.2.2-.4.3-.5h0l-.6-.6c.2.4.3.8.4,1.1"/>
          </g>
          <g id="g9097">
            <path id="path9099" class="cls-3" d="M110,71.3c0,.3.2.7.4,1.2.3,0,.5.2.8.3l-1.1-1.4h-.1Z"/>
          </g>
          <g id="g9101">
            <path id="path9103" class="cls-3" d="M110.4,77.6c.2.6.3,1.2.4,1.8,0-.9,0-1.7,0-2.4,0,.2-.2.4-.3.6"/>
          </g>
          <g id="g9105">
            <path id="path9107" class="cls-3" d="M110.8,71h0l.5.2c-.2,0-.4,0-.5-.2"/>
          </g>
          <g id="g9109">
            <path id="path9111" class="cls-3" d="M110.9,74.3c0,.4.2.9.2,1.3.3-.3.5-.6.8-.8-.3-.2-.7-.4-1.1-.6"/>
          </g>
          <g id="g9113">
            <path id="path9115" class="cls-3" d="M126,76.9h0l-.8-1h0c-.2,0-.3.2-.5.4.6.3,1.1.6,1.3.7"/>
          </g>
          <g id="g9117">
            <path id="path9119" class="cls-3" d="M107.5,80.1c0,.7.2,1.3.3,1.9v-.5c0-.7,0-1.5,0-2.1l-.5-.5v1.2h0Z"/>
          </g>
          <g id="g9121">
            <path id="path9123" class="cls-3" d="M107.1,73.6v.3c.2-.3.3-.7.3-1l-.3-.3v1"/>
          </g>
          <g id="g9125">
            <path id="path9127" class="cls-3" d="M107.5,76.6v1.6l.6.6c0-.7,0-1.4.2-2.1l-.7-.4v.3"/>
          </g>
          <g id="g9129">
            <path id="path9131" class="cls-3" d="M108.6,72.5h-.6c.3,0,.4.2.6.3v-.2"/>
          </g>
          <g id="g9133">
            <path id="path9135" class="cls-3" d="M112.6,74.5l-.9-1.1h0c-.2,0-.4.3-.5.4.7.3,1.2.6,1.4.7h.2"/>
          </g>
          <g id="g9137">
            <path id="path9139" class="cls-3" d="M111.8,77.5c.2-.9.4-1.7.6-2.4-.5.3-.9.7-1.2,1.2,0,1.2.2,2.5.2,3.9v.2c0-.8.3-1.8.5-2.9"/>
          </g>
          <g id="g9141">
            <path id="path9143" class="cls-3" d="M111.7,72.7h0l-.5-.5.4.5h0Z"/>
          </g>
          <g id="g9145">
            <path id="path9147" class="cls-3" d="M108.4,74.8c-.2,0-.5-.2-.7-.2h0l.6,1.1v-1"/>
          </g>
          <g id="g9149">
            <path id="path9151" class="cls-3" d="M107.6,75.8h.2c0,0-.2-.3-.2-.3v.3"/>
          </g>
          <g id="g9153">
            <path id="path9155" class="cls-3" d="M107.7,71.6c0-.2,0-.3,0-.5-.2.2-.5.4-.7.6h.6v-.2"/>
          </g>
          <g id="g9157">
            <path id="path9159" class="cls-3" d="M124.3,79.6c0,.5.3,1.1.4,1.7,0-.8,0-1.5,0-2.2,0,.2-.2.4-.3.5"/>
          </g>
          <g id="g9161">
            <path id="path9163" class="cls-3" d="M125.5,75.2h0l-.5-.5.4.5h0Z"/>
          </g>
          <g id="g9165">
            <path id="path9167" class="cls-3" d="M117.4,78.3v.3s0-.2,0-.3h-.2,0Z"/>
          </g>
          <g id="g9169">
            <path id="path9171" class="cls-3" d="M117.1,80.6c0,0,0,.2,0,.4v-.5.2"/>
          </g>
          <g id="g9173">
            <path id="path9175" class="cls-3" d="M113.8,75h0c0,.2,0,.4.2.6v-.4l-.2-.2"/>
          </g>
          <g id="g9177">
            <path id="path9179" class="cls-3" d="M116,84.1v5.8h1.3v-6.2c0-.8-.3-1.6-.5-2.4-.5,1.5-.8,2.6-.9,2.8"/>
          </g>
          <g id="g9181">
            <path id="path9183" class="cls-3" d="M119.6,77.5h0c-.2-.3-.4-.5-.6-.6h0c-.5.8-1,1.7-1.4,2.6v.5c.2.9.2,3,.2,3v6.9h3.8v-3.8c0-2-.7-6.9-1.9-8.6h0Z"/>
          </g>
          <g id="g9185">
            <path id="path9187" class="cls-3" d="M128.4,77.6c.3.2.5.5.8.9s.7.9,1,1.5c-.3-1.9-.7-3.1-1-3.9l-.8,1.5Z"/>
          </g>
          <g id="g9189">
            <path id="path9191" class="cls-3" d="M123.2,73.6c0,.3,0,.6,0,1,.2,0,.4,0,.6,0,0-.5-.3-.8-.4-1.1h0Z"/>
          </g>
          <g id="g9193">
            <path id="path9195" class="cls-3" d="M113,74.8c-.7,2.2-1.2,5.5-1.3,7v8.1h2.4v-11.1c-.2-1.5-.5-2.8-1-4.1h0"/>
          </g>
          <g id="g9197">
            <path id="path9199" class="cls-3" d="M123,75.3c.3.2.6.3,1,.5,0-.2,0-.4-.2-.6-.3,0-.5,0-.8-.2v.3"/>
          </g>
          <g id="g9201">
            <path id="path9203" class="cls-3" d="M88.5,72.6h0c-.2-.3-.4-.5-.6-.6h0c-2,3.2-3,7.1-3.1,7.4v10.5h5.8v-8.4c0-2.1-.8-7.1-2-8.9h-.1Z"/>
          </g>
          <g id="g9205">
            <path id="path9207" class="cls-3" d="M92,70.4c.3.2.7.3,1,.5,0-.2,0-.4-.2-.6-.3,0-.5,0-.8-.2v.3"/>
          </g>
          <g id="g9209">
            <path id="path9211" class="cls-3" d="M128.7,78.6c.7,1.2,1.4,2.6,1.8,4.1v-.8c-.4-1.4-1-2.5-1.6-3.2h-.1"/>
          </g>
          <g id="g9213">
            <path id="path9215" class="cls-3" d="M104.7,64c0,.4,0,.8-.2,1.3.2,0,.5,0,.7.2-.2-.6-.3-1.1-.5-1.4h0Z"/>
          </g>
          <g id="g9217">
            <path id="path9219" class="cls-3" d="M85.2,76.2c.2-.6.5-1.3.8-2.1,0-.2.2-.4.3-.6h-.4c-.3.8-.6,1.8-.8,2.7"/>
          </g>
          <g id="g9221">
            <path id="path9223" class="cls-3" d="M109.5,74.9c.2-.3.4-.6.7-.9-.4-.2-.7-.4-1.1-.6v.6c0,.2.3.5.4.8h0"/>
          </g>
          <g id="g9225">
            <path id="path9227" class="cls-3" d="M87,72.4v-1c-.3.5-.6,1-.8,1.5h.4c0,0,.2-.3.4-.6"/>
          </g>
          <g id="g9229">
            <path id="path9231" class="cls-3" d="M104.5,66.3c.4.2.8.4,1.2.6,0-.3,0-.5-.2-.7-.3,0-.7-.2-1-.2v.4"/>
          </g>
          <g id="g9233">
            <path id="path9235" class="cls-3" d="M92.2,68.6c0,.3,0,.6,0,1.1.2,0,.4,0,.6,0,0-.5-.3-.9-.4-1.2h0Z"/>
          </g>
          <g id="g9237">
            <path id="path9239" class="cls-3" d="M96.8,71c0,.2-.2.5-.2.7l.2.2c0,0,0-.3.2-.4,0-.2,0-.4,0-.5"/>
          </g>
          <g id="g9241">
            <path id="path9243" class="cls-3" d="M95.5,77.4v12.5h4.3v-9.3c-.4-3.1-1.6-5.6-2.9-7.6-.9,2.3-1.3,4.1-1.4,4.4"/>
          </g>
          <g id="g9245">
            <path id="path9247" class="cls-3" d="M118.2,77.3v-.9c-.3.4-.6.9-.8,1.5h.4c0,0,.2-.3.3-.5"/>
          </g>
          <g id="g9249">
            <path id="path9251" class="cls-3" d="M122.6,86.1v3.8h2v-6.5c-.2-1.2-.4-2.3-.6-3.2-1.1,2.6-1.4,5.7-1.4,5.9"/>
          </g>
          <g id="g9253">
            <path id="path9255" class="cls-3" d="M124.1,79c0-.2.2-.3.3-.5h0l-.6-.6c0,.3.3.7.4,1.1"/>
          </g>
          <g id="g9257">
            <path id="path9259" class="cls-3" d="M128.3,76.8l.6-1.1-.9-.4c.1.4.2.9.4,1.4"/>
          </g>
          <g id="g9261">
            <path id="path9263" class="cls-3" d="M121.7,76.8l.6,1.1v-.9c-.2,0-.5-.2-.7-.2"/>
          </g>
          <g id="g9265">
            <path id="path9267" class="cls-3" d="M119.6,76.8c0,0,.2.2.3.4l1.9.9-.7-1.4h-1.5"/>
          </g>
          <g id="g9269">
            <path id="path9271" class="cls-3" d="M121.5,81.7c0,.7.2,1.4.3,2v-.5c0-.7,0-1.3,0-2l-.7-.7c0,.4.2.8.2,1.2"/>
          </g>
          <g id="g9273">
            <path id="path9275" class="cls-3" d="M126.7,75.7c0-.3.3-.5.4-.7-.2,0-.5,0-.8.2l.4.4"/>
          </g>
          <g id="g9277">
            <path id="path9279" class="cls-3" d="M126,74.9c0,0,.3,0,.4,0l-.8-.3.5.5"/>
          </g>
          <g id="g9281">
            <path id="path9283" class="cls-3" d="M125.8,75.5l.6.8v-.2c-.2-.2-.4-.5-.6-.7h0"/>
          </g>
          <g id="g9285">
            <path id="path9287" class="cls-3" d="M127.9,77.1c0-.7-.3-1.4-.5-1.9-.2.2-.3.5-.5.8.2.3.4.6.7.9,0,0,.2,0,.2.2"/>
          </g>
          <g id="g9289">
            <path id="path9291" class="cls-3" d="M121,79.7l1,1c0-.6,0-1.3.2-1.9l-1.9-.9c.2.5.5,1.1.7,1.8"/>
          </g>
          <g id="g9293">
            <path id="path9295" class="cls-3" d="M124.2,76.8c-.2.2-.3.4-.5.6.2.2.5.4.7.7,0-.5,0-.9-.2-1.3"/>
          </g>
          <g id="g9297">
            <path id="path9299" class="cls-3" d="M122.6,74.9c-.2,0-.4,0-.7,0,.2,0,.4.2.6.3v-.2"/>
          </g>
          <g id="g9301">
            <path id="path9303" class="cls-3" d="M126.9,76.9h-.2c-.7,2.1-1.1,5.1-1.2,6.5v6.4h5.2v-4.6c-.4-3.3-1.8-6-3.3-8-.2-.2-.4-.3-.5-.3"/>
          </g>
          <g id="g9305">
            <path id="path9307" class="cls-3" d="M128.3,74.9h-.3l.8.3c0,0-.2-.2-.2-.2-.1,0-.2,0-.2,0"/>
          </g>
          <g id="g9309">
            <path id="path9311" class="cls-3" d="M122.5,75.6s-.2,0-.2,0c0,0,0,.2.2.3v-.2"/>
          </g>
          <g id="g9313">
            <path id="path9315" class="cls-3" d="M123.8,79.6c0-.5-.3-1-.5-1.4-.4.8-.6,1.6-.8,2.6v.3h0c0,.7,0,1.4-.2,2.1v1.3c0-.8.3-1.7.6-2.7.2-.8.5-1.6.9-2.3"/>
          </g>
          <g id="g9317">
            <path id="path9319" class="cls-3" d="M124.6,76.6c0,.4.2.8.2,1.2.2-.3.5-.5.8-.7-.3-.2-.6-.3-1-.5"/>
          </g>
          <g id="g9321">
            <path id="path9323" class="cls-3" d="M124.8,75.6c0,0-.3,0-.5-.2,0,.2,0,.3,0,.5l.3-.3"/>
          </g>
          <g id="g9325">
            <path id="path9327" class="cls-3" d="M125.5,79.6c.2-.8.3-1.6.5-2.2-.4.3-.8.7-1.1,1.1,0,1.1.2,2.3.2,3.6v.2c0-.7.2-1.7.4-2.7"/>
          </g>
          <g id="g9329">
            <path id="path9331" class="cls-3" d="M122.7,78.3c0-.3.2-.5.3-.7,0,0,0-.2,0-.2h0v1"/>
          </g>
          <g id="g9333">
            <path id="path9335" class="cls-3" d="M91.5,70.6s-.2,0-.2,0c0,0,0,.2.2.3v-.2"/>
          </g>
          <g id="g9337">
            <path id="path9339" class="cls-3" d="M94.1,77.5c0-.7.2-1.7.4-2.7.2-.9.4-1.6.5-2.3h0c-.7.5-1.1,1.4-1,2.3v2.8h0Z"/>
          </g>
          <g id="g9341">
            <path id="path9343" class="cls-3" d="M97.5,70.1h-.4c0,0,.3,0,.3,0h0Z"/>
          </g>
          <g id="g9345">
            <path id="path9347" class="cls-3" d="M92.8,74.7c-.2-.5-.3-1-.5-1.5-.4.8-.6,1.7-.8,2.7v.3h0c0,.7,0,1.4-.2,2.1v1.3c0-.8.3-1.8.6-2.8.3-.9.6-1.7.9-2.3"/>
          </g>
          <g id="g9349">
            <path id="path9351" class="cls-3" d="M97.2,70.8s0-.2,0-.3h-.2s0,.2,0,.3"/>
          </g>
          <g id="g9353">
            <path id="path9355" class="cls-3" d="M91.6,70c-.2,0-.5,0-.7,0,.2,0,.4.2.7.3v-.2"/>
          </g>
          <g id="g9357">
            <path id="path9359" class="cls-3" d="M93.7,71.7c0,.4.2.8.2,1.3.2-.3.5-.5.8-.8-.3-.2-.6-.3-1-.5"/>
          </g>
          <g id="g9361">
            <path id="path9363" class="cls-3" d="M93.8,70.6c-.2,0-.3,0-.5-.2,0,.2,0,.3,0,.5,0,0,.2-.2.4-.3"/>
          </g>
          <g id="g9365">
            <path id="path9367" class="cls-3" d="M93.2,71.8c-.2.2-.3.4-.5.6.2.2.5.4.7.7,0-.5,0-.9-.2-1.3"/>
          </g>
          <g id="g9369">
            <path id="path9371" class="cls-3" d="M93.3,74.8c0,.5.3,1.1.4,1.8,0-.8,0-1.6,0-2.3,0,.2-.2.4-.3.6"/>
          </g>
          <g id="g9373">
            <path id="path9375" class="cls-3" d="M97.9,73.7c.7,1.3,1.4,2.7,1.9,4.3v-.8c-.4-1.5-1-2.6-1.7-3.3,0,0,0,0,0-.2"/>
          </g>
          <g id="g9377">
            <path id="path9379" class="cls-3" d="M101.4,65.5h0l1.1,2c.4,0,.9.2,1.3.4v-.3c-.7-1.1-1.3-1.6-1.9-2-.2,0-.4,0-.5-.2"/>
          </g>
          <g id="g9381">
            <path id="path9383" class="cls-3" d="M99.7,67.7c.4,0,1.1-.2,2.1-.2l-.8-1.5c-.4.5-.9,1.1-1.3,1.7"/>
          </g>
          <g id="g9385">
            <path id="path9387" class="cls-3" d="M97.4,69.4h0s.2,0,.4,0h0c0-.3.3-.5.4-.8v-1.2c-.4.6-.7,1.2-1,1.9"/>
          </g>
          <g id="g9389">
            <path id="path9391" class="cls-3" d="M104,65.2c0-.5,0-1,.2-1.4h0v-.4c-.8.4-1.6.9-2.3,1.5.5,0,1.2,0,2.1.3"/>
          </g>
          <g id="g9393">
            <path id="path9395" class="cls-3" d="M98.8,66.8v1.1c.7-1,1.3-1.8,1.9-2.5-.7.2-1.4.7-1.9,1.4"/>
          </g>
          <g id="g9397">
            <path id="path9399" class="cls-3" d="M104.1,70.1c0-.3.3-.6.4-.9,0,0,0-.2,0-.3,0,0,0,0-.2,0,0,.4,0,.9,0,1.3"/>
          </g>
          <g id="g9401">
            <path id="path9403" class="cls-3" d="M97.6,72.7c.3.2.5.5.8.9s.7.9,1,1.6c-.3-2-.7-3.2-1-4l-.8,1.5Z"/>
          </g>
          <g id="g9405">
            <path id="path9407" class="cls-3" d="M100.2,69h0c-.2-.3-.5-.6-.8-.7h0c-.4.5-.7,1.1-1,1.7,0,.2.3.3.4.6h0c.5,1.2,1.1,3.1,1.5,6.6.2.8.2,2.9.2,2.9v9.9h.6v-7.5c0-.2.3-3.3,1.3-6.1-.4-2.7-1.1-5.8-2-7.2"/>
          </g>
          <g id="g9409">
            <path id="path9411" class="cls-3" d="M109,75.1h-.2c0,.4,0,.7,0,1.1,0-.3.3-.5.5-.8l-.2-.2"/>
          </g>
          <g id="g9413">
            <path id="path9415" class="cls-3" d="M93.1,74.2c0-.2,0-.2.2-.4h0c-.2-.3-.4-.5-.6-.7,0,.3.3.7.4,1.1"/>
          </g>
          <g id="g9417">
            <path id="path9419" class="cls-3" d="M104.3,67.5c.2.3.3.6.5,1h0c.2-.4.5-.7.8-1-.4-.2-.9-.4-1.3-.6v.7"/>
          </g>
          <g id="g9421">
            <path id="path9423" class="cls-3" d="M91.9,71.4c0,.2.3.5.4.8h0c.2-.3.4-.6.7-.8-.4-.2-.7-.4-1.1-.5v.6"/>
          </g>
          <g id="g9425">
            <path id="path9427" class="cls-3" d="M91.7,73.5c0-.3.2-.5.4-.7,0,0,0-.2,0-.2h-.2v1.1"/>
          </g>
          <g id="g9429">
            <path id="path9431" class="cls-3" d="M93.7,68.6h.4-.4"/>
          </g>
          <g id="g9433">
            <path id="path9435" class="cls-3" d="M91.3,72.2c-.2,0-.5-.2-.7-.2l.6,1.2v-.9"/>
          </g>
          <g id="g9437">
            <path id="path9439" class="cls-3" d="M92.8,68.8c0,.3.2.7.4,1.1.3,0,.5.2.7.3l-1-1.4h0Z"/>
          </g>
          <g id="g9441">
            <path id="path9443" class="cls-3" d="M87.3,70.8v.9c.5-.8,1-1.5,1.6-2-.6.2-1.1.6-1.6,1.2"/>
          </g>
          <g id="g9445">
            <path id="path9447" class="cls-3" d="M226.1,86.5l-.8-2h-3.8l-.8,2h-2l3.8-8.9h1.8l3.8,8.9h-2ZM214.4,86.6l-2-5.8-2,5.8h-1.7l-3-8.9h2.1l1.8,6,2-6h1.7l2,6,1.8-6h2l-3,8.9h-1.7ZM204.7,66.3l-.4-1.3,1.2-5h0l.3.9.3,1,.3,1.2.3,1v.4c.1,0-.5,2.3-.5,2.3h-1.3l-.2-.5h0ZM203.9,66.9l.3-1.1h0l.2.9v.2h-.5M201.7,67.1l-.3-1,1.1-5.1h.2l1.2,4.2h0l-.4,1.8c-.6,0-1.3,0-1.9.2M201.2,67.1v-.3h0v.2h0M201.1,66.1l-.2,1.1c-.7,0-1.3.2-2,.3l-.2-.6,1.1-4.7s.1,0,.2,0l1.1,4h0ZM200.7,86.2c0,1.7-.8,2.3-2.4,2.4l-.2-.8c.9,0,1.3-.5,1.2-1.3h-.8v-2h2.1v1.7h0ZM197.1,86.5h-6.8v-8.9h6.7v1.7h-4.8v1.8h4.2v1.7h-4.2v1.9h4.8v1.7h.1ZM190.2,70.2c.3-.3.5-.6.8-.9h0v.5c-.5.3-.8.4-.8.4M188.9,86.5h-6.4v-8.9h2v7.1h4.4v1.8ZM182.9,71.5h-.2v-.4l-.2-.6h0c.2.3.3.4.4.6.2.2.3.4.4.5.2.3.3.4.3.4M181.2,70.8l.5-1.2.2.2v.3l.3,1.1c-.3-.2-.7-.3-1-.4M181,79.5h-2.7v7.1h-2v-7.1h-2.7v-1.8h7.4v1.8ZM172.8,67.8l.9-4h.2l1.2,4.8c-.7-.2-1.4-.3-2.1-.4l-.2-.5h0ZM172.8,79.5h-2.7v7.1h-2v-7.1h-2.7v-1.8h7.4v1.8ZM163.7,86.5l-.8-2h-3.8l-.8,2h-2l3.8-8.9h1.8l3.8,8.9h-2ZM155.4,86.5h-6.8v-8.9h6.7v1.7h-4.8v1.8h4.2v1.7h-4.2v1.9h4.8v1.7h.1ZM146.9,83.9c0,1.8-1.3,2.8-3.3,2.8s-2.7-.5-3.8-1.4l1.2-1.4c.8.7,1.6,1.1,2.7,1.1s1.3-.3,1.3-.8h0c0-.5-.3-.8-1.8-1.2-1.8-.5-3-1-3-2.7h0c0-1.6,1.3-2.7,3.1-2.7s2.4.4,3.3,1.1l-1,1.5c-.8-.5-1.6-.9-2.3-.9s-1.1.3-1.1.8h0c0,.6.4.8,1.9,1.2,1.8.5,2.8,1.1,2.8,2.7h0ZM142.6,71.7v.6c.1,0-.7.2-.7.2.2-.3.5-.6.7-.8M144,70.2h0l-.3,1.8-.6.2-.2-.8c.4-.4.7-.8,1.1-1.1M144.4,69.8l.5-.5.7,2.1-1.6.5.4-2.1h0ZM146.9,67.6h0l-.7,3.7h-.3l-.8-2.2c.6-.5,1.2-1,1.8-1.5M146.9,63.5h1.5v.6h-1.5v-.6ZM146.9,61.6h1.5v.6h-1.5v-.6ZM146.9,59.7h1.5v.6h-1.5v-.6ZM146.9,57.9h1.5v.6h-1.5v-.6ZM146.9,56h1.5v.6h-1.5v-.6ZM149.5,63.5h1.1c-.4.2-.8.4-1.1.6v-.6ZM149.5,61.6h1.5v.6h-1.5v-.6ZM152.9,48.9h1v1.5h-1v-1.5ZM154.7,48.9h1v1.5h-1v-1.5ZM153.4,63.7h.1l1.2,4.1-.3,1.2c-.3,0-.6.2-.8.2h-.3l-1,.3v-.3s1.1-5.5,1.1-5.5ZM150.9,64.9c.7-.4,1.4-.8,2.1-1.1h0l-1,4.7h0l-1.1-3.6ZM150.3,65.3h.2c0,0,1.2,4,1.2,4v.5c-.1,0-2.7.7-2.7.7l1.2-5.2h.1ZM148.7,70.5h0l-2.1.7.8-3.9c.1,0,.2-.2.3-.2l.3,1.1.7,2.4h0ZM148.2,67.7l-.3-.9h0c.6-.5,1.3-.9,1.9-1.3h0l-1,4.3h0l-.6-2.1h0ZM156,62.6l-1.2,4.5-.2-.8-.8-2.8c.8-.3,1.5-.6,2.3-.9M157.6,66.9h0l-.3,1.3c-.7,0-1.4.2-2,.4l-.3-.9,1.3-5.1,1.2,4.3h.1ZM156.5,48.9h1v1.5h-1v-1.5ZM158.9,61.8l-1.1,4.5-1.1-3.9c.8-.3,1.5-.5,2.2-.6h0ZM160.6,65.8h-1.7v2.4h-.5l-.4-1.2,1.3-5.1,1.3,4h0ZM162.1,61.3h0l-.2.8h0c0,0-.9,3.7-.9,3.7l-1.4-4.1c1-.2,1.9-.3,2.5-.4M161.9,56h1.5v.6h-1.5v-.6ZM163.6,65.8h-2.3l.8-3.1.2-.6v-.2.2c.1,0,.3.6.3.6l1,3.1ZM163.8,61.2c.4,0,.7,0,1.1,0l-.5,2.1-.2.6h0l-.4,1.5-1-2.9-.2-.6h0l-.3-.8h1.4M166.7,66.4h0l-.3,1.3h-1v-1.9h-1.2l.4-1.8.2-.6.4-1.9,1.5,4.9h0ZM167.8,61.8h0l-.7,2.8-.2.6v.4h-.1v-.3h-.1c0,0-.2-.7-.2-.7l-.3-1-.7-2.3c.8,0,1.5.2,2.2.4M168.8,64.2l.8,2.7-.3.9h-1.8v-.4c-.1,0-.4-.9-.4-.9l.3-1.1.2-.6.7-2.7.6,2.3v-.2ZM169.8,67.9h-.2v-.3l.2.3h0ZM168.5,62h.3c.3,0,.7.2,1,.3h.2c.2,0,.5,0,.7.2h0l-.9,3.3h0v.3l-1-3.3-.3-1v.2ZM171,62.8h0l1.4,5.1v.4c-.9,0-1.6-.2-2.3-.3l-.3-1,1.1-4.1h.1ZM173.4,63.7h0l-.7,3.4-.3-1.2-.9-3c.7.3,1.3.5,1.9.8M171.7,57.1h1v1.8h-1v-1.8ZM173.4,60.1h1v1.8h-1v-1.8ZM175.6,64.9c.2,0,.4.2.6.4l-.2.8h0l-.6,1.8v.4c-.1,0-1.1-4.1-1.1-4.1.3.2.7.3,1,.5.1,0,.2,0,.4.2M175.3,63.1h1v.8c-.3-.2-.7-.4-1-.5v-.2h0ZM175.3,60.1h1v1.8h-1v-1.8ZM175.3,57.1h1v1.8h-1v-1.8ZM176.6,65.4l.9,4c-.7-.2-1.4-.4-2-.6h0l.3-1,.5-1.6.3-.8h0M177.4,66c.3.2.6.4.9.6.2,0,.4.3.5.4h0l-.8,2.6h0l-.4-1.7-.2-.8v-.3l-.3-1c.1,0,.3.2.4.3M179.1,67.3h.1l.7,2.9c-.5-.2-1.1-.4-1.6-.6l.8-2.4h0ZM181.5,69.3h0l-.6,1.3c-.2,0-.4-.2-.6-.2l-.7-2.7c.7.6,1.3,1.1,1.8,1.6M184,68.9h0v.5h-.2c-.2-.2-.4-.4-.6-.5h.8ZM182.5,67.8h1.5v.5h-1.3s-.1,0-.2-.2v-.4h0ZM182.5,66.8h1.5v.5h-1.5v-.5ZM182.5,65.8h1.5v.5h-1.5v-.5ZM182.5,64.8h1.5v.5h-1.5v-.5ZM182.5,63.8h1.5v.5h-1.5v-.5ZM182.5,62.7h1.5v.5h-1.5v-.5ZM186.2,70.9h.3c-.1,0-.2.3-.3.4v-.4ZM186.2,69.9h1.3c-.2.2-.4.4-.5.5h-.8v-.5ZM186.2,68.9h1.5v.5h-1.5v-.5ZM186.2,67.8h1.5v.5h-1.5v-.5ZM186.2,66.8h1.5v.5h-1.5v-.5ZM186.2,65.8h1.5v.5h-1.5v-.5ZM186.2,64.8h1.5v.5h-1.5v-.5ZM186.2,63.8h1.5v.5h-1.5v-.5ZM186.2,62.7h1.5v.5h-1.5v-.5ZM191.3,68.9c.3-.3.5-.6.8-.8v.3l.4.9c-.4.2-.8.3-1.1.5v-.8h0ZM192.4,67.8c.3-.3.6-.6.9-.9.2-.2.4-.4.6-.5l-.4,2.5h-.2c-.2,0-.3,0-.5.2l-.3-1v-.3h-.1ZM194.6,65.6l.8,2.6c-.6.2-1.1.3-1.6.5l.5-2.7c.1,0,.2-.2.4-.3M196.6,64.1l-.9,4-.8-2.7c.6-.5,1.1-.9,1.7-1.3M197,63.8c.1,0,.2-.2.4-.2l.3,1,.7,2.3-.2.7c-.6,0-1.1.2-1.6.3h0c-.2,0-.3,0-.5,0l.5-2.4.4-1.9h0ZM197.7,63.4c.6-.4,1.2-.7,1.7-1h0l-.9,3.8s-.8-2.8-.8-2.8ZM202.2,61.1l-.9,4.2h0l-.9-3.4c.6-.3,1.2-.6,1.8-.8M202,53.5h3v.5h-3v-.5ZM205.2,60.1l-1,4.3h0l-1.1-3.7c.7-.2,1.4-.4,2.1-.6M202,51.9h3v.5h-3v-.5ZM205.7,54.5h1v1h-1v-1ZM205.8,51.9h3.4v2.1h-3.4v-2.1ZM210.6,59.7h0l-.9,4-1.1-4.1h1.9M209.8,65.2l.4,1.7h-.8l.4-1.6h0ZM207.2,64.5l.3-1.1v-.2l.3-1.2.2-1,.3-1.2,1.3,4.8-.5,2.4h-1.3l-.7-2.3v-.2ZM207,65.1l.5,1.7h-.9l.4-1.7ZM207.5,58.7v-.6h1v.5h-1M206.1,60.7l-.2-.8c.8,0,1.5-.2,2.1-.3l-.3,1.3-.2.9-.5,1.9-.5-1.9-.3-1v-.2h-.1ZM211,59.8l1.4,4.7-.5,2.5h-1.2l-.6-2.4,1.1-4.7h0M213.2,60.3h0l-.7,3.4-1.1-3.9c.6,0,1.2.3,1.8.5M213.2,67.1h-.9l.4-1.8.5,1.9h0ZM213.7,60.5h0l1.3,4.5-.5,2.3h-.8c0,0-.1,0-.1,0h0l-.6-2.1-.2-.6.8-4.1h.1M215.9,61.2l-.7,3.1-1.1-3.7c.6.2,1.2.4,1.8.6M215.8,67.5h-.9c0,0,.4-1.8.4-1.8l.5,1.8ZM216.4,61.4l1.4,4.2-.5,2-1.1-.2-.7-2.6.8-3.6h.2M218.5,62.4l-.6,2.6-1.1-3.4c.6.3,1.2.5,1.7.8M218.5,67.8h-.8c0,0,.3-1.5.3-1.5l.5,1.5ZM219,62.7l1.3,4.7-.2.7-1.3-.2-.7-2.3.7-3.1s.1,0,.2,0M220.5,68.1h0ZM221,63.9l-.6,2.8-1-3.7c.6.3,1.1.7,1.6,1M221.6,64.3l1.3,4.2-2-.3-.2-.8.7-3.3s.2,0,.3.2M223.6,65.8l-.5,2.2-1-3.4c.6.4,1.1.8,1.5,1.2M224.1,66.3l.6,2.5-1.4-.2.5-2.5s.1,0,.2.2M226.7,69l-1.5-.2-.5-2.1c1.4,1.3,2.1,2.3,2.1,2.3M135,60.6h-1v-1.5h1v1.5ZM133.2,58h-1v-1.5h1v1.5ZM133.2,60.6h-1v-1.5h1v1.5ZM128.6,48.3h-.8v-.8h.8v.8ZM127.3,48.3h-.8v-.8h.8v.8ZM126.2,58h-1v-1.5h1v1.5ZM125.2,47.6h.8v.8h-.8v-.8ZM124.8,48.3h-.8v-.8h.8v.8ZM124.6,58h-1v-1.5h1v1.5ZM123.5,48.3h-.8v-.8h.8v.8ZM122.4,65.9h-1v-1.5h1v1.5ZM117.7,60.5h-.9v-1.1h.9v1.1ZM116.7,58.1h.9v1.1h-.9v-1.1ZM116.7,56.7h.9v1.1h-.9v-1.1ZM116.7,55.3h.9v1.1h-.9v-1.1ZM116.7,53.9h.9v1.1h-.9v-1.1ZM116.7,52.5h.9v1.1h-.9v-1.1ZM116.7,51.1h.9v1.1h-.9v-1.1ZM116.7,49.7h.9v1.1h-.9v-1.1ZM116.7,48.3h.9v1.1h-.9v-1.1ZM116.7,46.9h.9v1.1h-.9v-1.1ZM116.7,45.5h.9v1.1h-.9v-1.1ZM116.7,44.1h.9v1.1h-.9v-1.1ZM116.3,60.5h-.9v-1.1h.9v1.1ZM115.3,58.1h.9v1.1h-.9v-1.1ZM115.3,56.7h.9v1.1h-.9v-1.1ZM115.3,55.3h.9v1.1h-.9v-1.1ZM115.3,53.9h.9v1.1h-.9v-1.1ZM115.3,52.5h.9v1.1h-.9v-1.1ZM115.3,51.1h.9v1.1h-.9v-1.1ZM115.3,49.7h.9v1.1h-.9v-1.1ZM115.3,48.3h.9v1.1h-.9v-1.1ZM115.3,46.9h.9v1.1h-.9v-1.1ZM115.3,45.5h.9v1.1h-.9v-1.1ZM115.3,44.1h.9v1.1h-.9v-1.1ZM114.8,60.5h-.9v-1.1h.9v1.1ZM113.3,60.5h-.9v-1.1h.9v1.1ZM112.4,58.1h.9v1.1h-.9v-1.1ZM112.4,56.7h.9v1.1h-.9v-1.1ZM112.4,55.3h.9v1.1h-.9v-1.1ZM112.4,53.9h.9v1.1h-.9v-1.1ZM112.4,52.5h.9v1.1h-.9v-1.1ZM112.4,51.1h.9v1.1h-.9v-1.1ZM112.4,49.7h.9v1.1h-.9v-1.1ZM112.4,48.3h.9v1.1h-.9v-1.1ZM112.4,46.9h.9v1.1h-.9v-1.1ZM112.4,45.5h.9v1.1h-.9v-1.1ZM112.4,44.1h.9v1.1h-.9v-1.1ZM113.8,58.1h.9v1.1h-.9v-1.1ZM113.8,56.7h.9v1.1h-.9v-1.1ZM113.8,55.3h.9v1.1h-.9v-1.1ZM113.8,53.9h.9v1.1h-.9v-1.1ZM113.8,52.5h.9v1.1h-.9v-1.1ZM113.8,51.1h.9v1.1h-.9v-1.1ZM113.8,49.7h.9v1.1h-.9v-1.1ZM113.8,48.3h.9v1.1h-.9v-1.1ZM113.8,46.9h.9v1.1h-.9v-1.1ZM113.8,45.5h.9v1.1h-.9v-1.1ZM113.8,44.1h.9v1.1h-.9v-1.1ZM107.8,43.4h-1v-2.7h1v2.7ZM107.3,55.1h-1v-2.7h1v2.7ZM105.2,55.1h-1v-2.7h1v2.7ZM103.6,32.1h-2.4v-1.3h2.4v1.3ZM103.6,34.3h-2.4v-1.3h2.4v1.3ZM103.6,36.4h-2.4v-1.3h2.4v1.3ZM103.5,51.1h-1v-2.7h1v2.7ZM103.5,55.1h-1v-2.7h1v2.7ZM100.9,32.1h-2.4v-1.3h2.4v1.3ZM100.9,34.3h-2.4v-1.3h2.4v1.3ZM100.9,36.4h-2.4v-1.3h2.4v1.3ZM100.3,48h-1v-2.7h1v2.7ZM98.4,55.1h-1v-2.7h1v2.7ZM92.5,36h-7.9v-.4h7.9v.4ZM92.5,37h-7.9v-.4h7.9v.4ZM92.5,37.9h-7.9v-.4h7.9v.4ZM92.5,38.9h-7.9v-.4h7.9v.4ZM92.5,39.9h-7.9v-.4h7.9v.4ZM92.5,40.8h-7.9v-.4h7.9v.4ZM92.5,41.8h-7.9v-.4h7.9v.4ZM92.5,42.8h-7.9v-.4h7.9v.4ZM92.5,43.8h-7.9v-.4h7.9v.4ZM88.7,50.5h-1v-2h1v2ZM88.7,53.4h-1v-2h1v2ZM86.3,50.5h-1v-2h1v2ZM77.1,24.3h-.7v-1.1h.7v1.1ZM77.1,26.4h-.7v-1.1h.7v1.1ZM77.1,28.4h-.7v-1.1h.7v1.1ZM77.1,30.5h-.7v-1.1h.7v1.1ZM77.1,32.5h-.7v-1.1h.7v1.1ZM77.1,34.5h-.7v-1.1h.7v1.1ZM77.1,38.6h-.7v-1.1h.7v1.1ZM77.1,42.7h-.7v-1.1h.7v1.1ZM77.1,44.7h-.7v-1.1h.7v1.1ZM77.1,48.8h-.7v-1.1h.7v1.1ZM77.1,50.8h-.7v-1.1h.7v1.1ZM77.1,52.9h-.7v-1.1h.7v1.1ZM77.1,57h-.7v-1.1h.7v1.1ZM77.1,59h-.7v-1.1h.7v1.1ZM77.1,61h-.7v-1.1h.7v1.1ZM77.1,63.1h-.7v-1.1h.7v1.1ZM77.1,65.1h-.7v-1.1h.7v1.1ZM77.1,73.3h-.7v-1.1h.7v1.1ZM77.1,77.3h-.7v-1.1h.7v1.1ZM77.1,83.4h-.7v-1.1h.7v1.1ZM77.1,85.5h-.7v-1.1h.7v1.1ZM75.8,22.3h-.7v-1.1h.7v1.1ZM75.8,28.4h-.7v-1.1h.7v1.1ZM75.8,34.5h-.7v-1.1h.7v1.1ZM75.8,36.6h-.7v-1.1h.7v1.1ZM75.8,38.6h-.7v-1.1h.7v1.1ZM75.8,40.6h-.7v-1.1h.7v1.1ZM75.8,42.7h-.7v-1.1h.7v1.1ZM75.8,50.8h-.7v-1.1h.7v1.1ZM75.8,52.9h-.7v-1.1h.7v1.1ZM75.8,59h-.7v-1.1h.7v1.1ZM75.8,61h-.7v-1.1h.7v1.1ZM75.8,63.1h-.7v-1.1h.7v1.1ZM75.8,65.1h-.7v-1.1h.7v1.1ZM75.8,69.2h-.7v-1.1h.7v1.1ZM75.8,73.3h-.7v-1.1h.7v1.1ZM75.8,77.3h-.7v-1.1h.7v1.1ZM75.8,79.4h-.7v-1.1h.7v1.1ZM75.8,83.4h-.7v-1.1h.7v1.1ZM74.4,22.3h-.7v-1.1h.7v1.1ZM74.4,24.3h-.7v-1.1h.7v1.1ZM74.4,26.4h-.7v-1.1h.7v1.1ZM74.4,32.5h-.7v-1.1h.7v1.1ZM74.4,40.6h-.7v-1.1h.7v1.1ZM74.4,48.8h-.7v-1.1h.7v1.1ZM74.4,52.9h-.7v-1.1h.7v1.1ZM74.4,57h-.7v-1.1h.7v1.1ZM74.4,59h-.7v-1.1h.7v1.1ZM74.4,61h-.7v-1.1h.7v1.1ZM74.4,63.1h-.7v-1.1h.7v1.1ZM74.4,71.2h-.7v-1.1h.7v1.1ZM74.4,75.3h-.7v-1.1h.7v1.1ZM73.1,22.3h-.7v-1.1h.7v1.1ZM73.1,26.4h-.7v-1.1h.7v1.1ZM73.1,28.4h-.7v-1.1h.7v1.1ZM73.1,32.5h-.7v-1.1h.7v1.1ZM73.1,34.5h-.7v-1.1h.7v1.1ZM73.1,36.6h-.7v-1.1h.7v1.1ZM73.1,42.7h-.7v-1.1h.7v1.1ZM73.1,48.8h-.7v-1.1h.7v1.1ZM73.1,52.9h-.7v-1.1h.7v1.1ZM73.1,54.9h-.7v-1.1h.7v1.1ZM73.1,59h-.7v-1.1h.7v1.1ZM73.1,61h-.7v-1.1h.7v1.1ZM73.1,63.1h-.7v-1.1h.7v1.1ZM73.1,65.1h-.7v-1.1h.7v1.1ZM73.1,67.1h-.7v-1.1h.7v1.1ZM73.1,73.3h-.7v-1.1h.7v1.1ZM73.1,77.3h-.7v-1.1h.7v1.1ZM73.1,83.4h-.7v-1.1h.7v1.1ZM67.3,75.2h-2.4v-.7h1.9v-.2h.5v.8h0ZM67.3,86.5l-1.1-10.1,1.1-.4v10.4h0ZM63.5,87.1l-.5-5.1h1.1l1,5.1h-1.6ZM62.9,77.3h1.2l.4,3.8h-1.6v-3.8ZM62.8,74.3h1.3v1.1h-1.3v-1.1ZM62.6,72.4h1.4v.8h-1.4v-.7h0ZM62.4,67.6h1.3l.2,3.9h-1.4v-3.9h0ZM62.4,62.5h1l.3,4.1h-1.3v-4.1ZM62.1,57.5h1.1v4.1c0,0-1.1,0-1.1,0v-4.1ZM62.1,52.6h.8l.4,4.1h-1.2v-4.1ZM62.2,47.8l.6,4.1h-.8l.3-4.1h0ZM61.7,75.2h-6v-.7h6v.7ZM59.4,87.1h-4.9l1.3-9.8h3.5c0,0,0,9.8,0,9.8h.1ZM57.6,62.6h2.2v10.6h-3.1l1-10.6h-.1ZM59.5,47.6h0v14h-2.1l1.8-13.9h.2ZM58.3,30.1c-.6-3.5-1.1-7.2-1.8-10.7h1.1c.3,2.8.5,5.6.8,8.4,0,.9.2,1.9,0,2.8-.2-.1-.2-.4-.2-.6M58.3,19.5h.5c.2,3.7.7,7.4.8,11.1-.3,0-.3-.4-.3-.5,0-.7,0-1.4-.2-2.1-.3-2.7-.6-5.7-.8-8.4h0ZM62.9,19.5h.5c-.2,1.7-.4,3.5-.6,5.1,0-1.6,0-3.4,0-5.1M65,19.3h0c-.4,3.4-.9,6.9-1.4,10.2,0,.4,0,1-.5,1.1-.3-.3-.2-.9,0-1.3.3-3.2.7-6.6,1-9.9.4,0,.7,0,1-.2M49.6,38.9h-1v-1.4h1v1.4ZM49.6,41.1h-1v-1.4h1v1.4ZM48,35.5h-1v-1.4h1v1.4ZM48,38.9h-1v-1.4h1v1.4ZM44.8,62.3h-1.3v-1.6h1.3v1.6ZM43.7,37.5h1v1.4h-1v-1.4ZM40.2,53.5h-1.1v-2.6h1.1v2.6ZM28.3,36.2h-1.1v-1.1h1.1v1.1ZM26.6,36.2h-1.1v-1.1h1.1v1.1ZM24.9,36.2h-1.1v-1.1h1.1v1.1ZM24.5,57h-1.1v-2.6h1.1v2.6ZM24.5,61.2h-1.1v-2.6h1.1v2.6ZM24.5,65.5h-1.1v-2.6h1.1v2.6ZM23.2,36.2h-1.1v-1.1h1.1v1.1ZM22.2,65.5h-1.1v-2.6h1.1v2.6ZM20.4,53h-1.1v-2.6h1.1v2.6ZM20.4,35.1h1.1v1.1h-1.1v-1.1ZM229.1,69.4c-5.5-6.6-11.5-9.2-15.4-10.2-.3,0-.5,0-.7-.2.2,0,.5,0,.7.2v-6.9h-2v-1h-3.2l-1.1-1.1-.5-.5h-3.3v.6h-2.2v.6h-1.9v.6h-1.2v.6h-1.7v10h0c-1.2.7-2.3,1.5-3.4,2.3v-2.6h-2.7v-1.3h-5.9v.8h-3.9v-5h-.8v-1.8h-.8v-.6h-2.4v-1.1h-4.9v1.5h-1v1.6h-1v5c-.3,0-.7-.2-1-.3v-7.7h-8.6v-7.1h-9.6v6.8h-6.6v14.8c-3.3,2.5-5.1,4.8-5.1,4.8h-1.2v-21.3h-3.2v-1h-2.2v-.8h-2.5v-2.7l-1.9-1.5h-4.6l-1.5,1v-9.7h-2.4v-1.6h-2.9v1.8h-1.2v3.4h-1.4v.6h-1.2v1.6h-3v-4.9h-3.7v-7.9h-2.4v-1l-2-2.1v-1.3h-1v1.3l-2,1.6v1h-2.2v8.7h-.7v21h-1.2v-15.2h-1v-8.6l-1.2-.5h-8.4v12.9l-4.3-4.1-.6-22.6-.9-.9h-7v20.1h-2.5v1.3h-1.4v32.7l-1-.6-2.3-23.9c-.2-2.1-.3-4.2-.4-6.4v-4c0-1.6,0-3.3,0-5,0-2.6.6-5,1-7.5.3-2.5.6-5,1-7.5,1.4-.3,3.4-.7,3.5-1.5-.2-.5-1-.7-1.7-.8-2-.5-4-.7-6.5-.7s-4.8.2-7,.7c-.5.1-1.5.5-1.5.9s1.1.9,1.6,1.1c.8.3,1.4.4,2.2.5.4,2.4.7,4.8,1.1,7.2.4,2.3.9,4.7,1.2,7.1.2,1.3,0,2.7,0,4,0,2.9,0,5.8,0,8.5l-.3,2.6v.6h0l-2.8,24.3-1.2,1h1.2v.6h-1.2c0,0,0,.8,0,.8l.6.7-.9,6.4v-46.9l-2.5-2.1v-4h-3l-1-1.3h-2.5l.5,1.3h-4.4v6.5h-1.7v8.6h-3l-1.7-.5h-4.1v-8.2h-1.4v-2.4h-1.4l-1.7-1.3h-2.7l-1.5,1.1h-1.5v1.9l-.5.5v1.9h-1.2v1h-3v50.9h68.8v-10.5c0-.4.9-9.4,4.7-10.2h.4c.9-.8,1.8-1.4,2.7-1.7h.2c.7.3,4,1.8,4.3,2,.9-2.3,2.2-4.3,4-4.7h.4c1-1,2.2-1.7,3.3-2.1h.2c.8.4,5,2.2,5.3,2.4h0c.2,0,.5-.2.7,0,0,0,.4,0,.6.2.3.2.6.5.9,1.2h0c.5,1.1,1,2.8,1.5,5.6.2,0,.4,0,.6,0s.3,0,.5,0c.3.2.5.5.8,1h0c.4.9.8,2.1,1.1,4,.7-1.5,1.6-2.7,2.8-2.9h.3c.8-.8,1.7-1.4,2.6-1.7h.2c.6.3,3.9,1.7,4.2,1.9h0c.2,0,.4,0,.6,0,0,0,.3,0,.5,0,.2,0,.5.4.7.9h0c.5,1.1,1,3,1.4,6.4.2.8.1,2.8.1,2.8v5.2h101.2v-20.3h-3.2l1,.4Z"/>
          </g>
          <g id="g9449">
            <path id="path9451" class="cls-3" d="M95.1,71.9h0l-.8-1.1h0c-.2,0-.3.3-.5.4.6.3,1.1.6,1.3.7"/>
          </g>
          <g id="g9453">
            <path id="path9455" class="cls-3" d="M88.1,71.5c.3,0,.9-.2,1.7,0l-.7-1.2c-.4.4-.7.9-1,1.4"/>
          </g>
          <g id="g9457">
            <path id="path9459" class="cls-3" d="M89.4,69.7h0l.9,1.6c.3,0,.7,0,1.1.3v-.2c-.5-.9-1.1-1.3-1.5-1.6-.2,0-.3,0-.4-.2"/>
          </g>
          <g id="g9461">
            <path id="path9463" class="cls-3" d="M91.6,69.5c0-.4,0-.8,0-1.1h0v-.3c-.7.3-1.3.7-1.9,1.2.4,0,1,0,1.7.2"/>
          </g>
          <g id="g9465">
            <path id="path9467" class="cls-3" d="M94.5,70.2h0l-.5-.5.4.5h0Z"/>
          </g>
          <g id="g9469">
            <path id="path9471" class="cls-3" d="M90.4,76.9c0,.7.2,1.4.3,2.1v-.5c0-.7,0-1.4,0-2l-.8-.7c0,.4.2.8.3,1.2"/>
          </g>
          <g id="g9473">
            <path id="path9475" class="cls-3" d="M88.5,71.9c0,0,.2.2.3.4l2,1-.8-1.4h-1.5"/>
          </g>
          <g id="g9477">
            <path id="path9479" class="cls-3" d="M89.9,74.9l1.1,1c0-.6,0-1.3.2-2l-1.9-1c.2.5.5,1.1.7,1.9"/>
          </g>
          <g id="g9481">
            <path id="path9483" class="cls-3" d="M95.7,72.1c-.7,2.1-1.1,5.2-1.3,6.7v11.1h.4v-12.6c0-.2.3-2.6,1-5.2h0"/>
          </g>
          <g id="g9485">
            <path id="path9487" class="cls-3" d="M91.5,81.5v8.4h2v-11.2c-.2-1.2-.4-2.3-.6-3.3-1.1,2.7-1.4,5.9-1.4,6.1"/>
          </g>
          <g id="g9489">
            <path id="path9491" class="cls-3" d="M95,69.9c0,0,.3,0,.4,0l-.9-.3.5.5"/>
          </g>
          <g id="g9493">
            <path id="path9495" class="cls-3" d="M94.8,70.5l.7.9v-.2c-.2-.3-.4-.5-.6-.7h0"/>
          </g>
          <g id="g9497">
            <path id="path9499" class="cls-3" d="M95.8,70.7c0-.3.3-.5.4-.7-.2,0-.5,0-.8.2l.4.4"/>
          </g>
          <g id="g9501">
            <path id="path9503" class="cls-3" d="M96.5,72.4h0c0,.4-.2.7-.3,1.1,0-.3.2-.6.4-1h0"/>
          </g>
          <g id="g9505">
            <path id="path9507" class="cls-3" d="M97.4,71.7v.2l.6-1.1h-.2c-.2.3-.3.6-.5.9"/>
          </g>
          <g id="g9509">
            <path id="path9511" class="cls-3" d="M103.9,65.8c-.2,0-.5,0-.8,0,.3,0,.5.2.8.4v-.2"/>
          </g>
          <g id="g9513">
            <path id="path9515" class="cls-3" d="M104.3,74.3c0,0,0-.2.2-.3.2-.5.3-.9.5-1.4-.3.2-.5.5-.8.8v.9h.1Z"/>
          </g>
          <g id="g9517">
            <path id="path9519" class="cls-3" d="M102,71.8l1.3,1.2c0-.8,0-1.6.2-2.4l-2.3-1.2c.3.6.6,1.4.8,2.3"/>
          </g>
          <g id="g9521">
            <path id="path9523" class="cls-3" d="M106.4,64.1h.2l.4.2c-.2,0-.4-.2-.5-.2"/>
          </g>
          <g id="g9525">
            <path id="path9527" class="cls-3" d="M105.4,71.6c-.2-.7-.4-1.3-.6-1.8-.5.9-.8,2-1,3.3.4-.6.9-1,1.5-1.3,0,0,0,0,0-.2"/>
          </g>
          <g id="g9529">
            <path id="path9531" class="cls-3" d="M100.2,68.1c0,0,.3.3.4.5l2.4,1.2-.9-1.7h-1.9"/>
          </g>
          <g id="g9533">
            <path id="path9535" class="cls-3" d="M102.8,68.2l.8,1.4c0-.4,0-.8,0-1.1-.3,0-.6-.2-.9-.3"/>
          </g>
          <g id="g9537">
            <path id="path9539" class="cls-3" d="M103.7,74.1c0,.4,0,.9,0,1.3,0,0,.2-.3.3-.4v-1h-.2"/>
          </g>
          <g id="g9541">
            <path id="path9543" class="cls-3" d="M106,68.1c-.2.2-.4.5-.6.8.3.2.6.5.9.8,0-.6-.2-1.1-.3-1.6"/>
          </g>
          <g id="g9545">
            <path id="path9547" class="cls-3" d="M103.5,76.7v1.2c0-.6.2-1.3.4-2.1-.2.3-.3.6-.4.9"/>
          </g>
          <g id="g9549">
            <path id="path9551" class="cls-3" d="M103.9,66.6s-.3,0-.4,0c0,0,.2.2.3.3v-.2"/>
          </g>
          <g id="g9553">
            <path id="path9555" class="cls-3" d="M106.5,71.6c0-.2,0-.4,0-.6,0,.2-.2.4-.3.6h.3s.2,0,.2,0"/>
          </g>
          <g id="g9557">
            <path id="path9559" class="cls-3" d="M106.2,75.8h0"/>
          </g>
          <g id="g9561">
            <path id="path9563" class="cls-3" d="M106.5,67.9c0,.5.2,1,.3,1.6.3-.4.6-.7,1-.9-.4-.2-.8-.4-1.2-.6"/>
          </g>
          <g id="g9565">
            <path id="path9567" class="cls-3" d="M108.9,70.8h0v-.4c-.2,0-.3.2-.5.2,0,.4-.2.8-.3,1.2h.5c0-.5,0-.9,0-1.2"/>
          </g>
          <g id="g9569">
            <path id="path9571" class="cls-3" d="M108.3,68.8c-.5.4-1,.9-1.4,1.4v.8c.3-.2.6-.4.9-.6,0-.6.3-1.1.4-1.6"/>
          </g>
          <g id="g9573">
            <path id="path9575" class="cls-3" d="M105.7,73c-.2.3-.4.5-.7.9v.2c.2,0,.5,0,.9,0,0-.3,0-.6-.2-.9"/>
          </g>
          <g id="g9577">
            <path id="path9579" class="cls-3" d="M106.5,72.3h0v.2s.2,0,.2-.2"/>
          </g>
          <g id="g9581">
            <path id="path9583" class="cls-3" d="M106.4,73.4v.5-.3l-.2-.2h.2Z"/>
          </g>
          <g id="g9585">
            <path id="path9587" class="cls-3" d="M106.1,66.3c0,.2,0,.4.2.6,0,0,.3-.2.4-.4-.2,0-.4-.2-.6-.2"/>
          </g>
          <g id="g9589">
            <path id="path9591" class="cls-3" d="M106.2,75.1c0-.2,0-.5,0-.7h-.6c0,0,.2.2.3.4l.4.2h0Z"/>
          </g>
          <g id="g9593">
            <path id="path9595" class="cls-3" d="M105.7,70.9c0-.2.2-.4.4-.6h0c-.2-.2-.6-.5-.8-.7.2.4.3.9.5,1.3"/>
          </g>
          <g id="g9597">
            <path id="path9599" class="cls-3" d="M108,66.4h0l.8,1.1v-.2c-.2-.3-.5-.6-.8-.9"/>
          </g>
          <g id="g9601">
            <path id="path9603" class="cls-3" d="M109.1,66.7c.2-.3.3-.6.5-.8-.3,0-.6,0-1,.3.2.2.3.4.5.5"/>
          </g>
          <g id="g9605">
            <path id="path9607" class="cls-3" d="M109.5,67.2c.3.3.6.7.8,1.1,0,0,.2.2.3.2-.2-.9-.4-1.8-.6-2.3-.2.3-.4.6-.6,1"/>
          </g>
          <g id="g9609">
            <path id="path9611" class="cls-3" d="M109.4,68.3c0,0-.2,0-.3,0-.2.5-.3,1.1-.5,1.7.2,0,.4-.2.6-.2h.2c.3,0,1,.5,1.8.8-.4-.7-.9-1.4-1.3-2-.3-.2-.5-.3-.6-.4"/>
          </g>
          <g id="g9613">
            <path id="path9615" class="cls-3" d="M111.2,68.1l.8-1.4-1.2-.5c.2.5.3,1.2.4,1.8"/>
          </g>
          <g id="g9617">
            <path id="path9619" class="cls-3" d="M111.1,65.7h-.5l1.1.4-.3-.3h-.2"/>
          </g>
          <g id="g9621">
            <path id="path9623" class="cls-3" d="M105.5,64.3c0,.4.3.8.4,1.3.3,0,.6.2.9.3l-1.3-1.7h0Z"/>
          </g>
          <g id="g9625">
            <path id="path9627" class="cls-3" d="M108.3,68.2s0,0,.2,0l-1-1.3h0c-.2,0-.4.3-.6.5.8.4,1.4.7,1.6.8"/>
          </g>
          <g id="g9629">
            <path id="path9631" class="cls-3" d="M108.1,65.7c.2,0,.3,0,.5-.2l-1.1-.4.6.6"/>
          </g>
          <g id="g9633">
            <path id="path9635" class="cls-3" d="M107.5,66h0c-.2-.2-.3-.4-.6-.6l.5.6h0Z"/>
          </g>
          <g id="g9637">
            <path id="path9639" class="cls-3" d="M113.1,73.2s0-.2.2-.3c0,0,0-.2,0-.2h-.2c0,0,0,.3.2.5"/>
          </g>
          <g id="g9641">
            <path id="path9643" class="cls-3" d="M111.3,69.1c.3.3.7.7,1,1.1s.7.9,1,1.5h.2c-.4-2.2-.8-3.6-1.2-4.5l-1,1.9Z"/>
          </g>
          <g id="g9645">
            <path id="path9647" class="cls-3" d="M101.4,82.4v7.5h1.2v-11c-.7,1.8-1.1,3.3-1.1,3.5"/>
          </g>
          <g id="g9649">
            <path id="path9651" class="cls-3" d="M102.4,77.4c-.2.5-.3,1.1-.4,1.6,0-.4.3-.8.5-1.2v-.5"/>
          </g>
          <g id="g9653">
            <path id="path9655" class="cls-3" d="M102.8,76.1v.7-.6h0"/>
          </g>
          <g id="g9657">
            <path id="path9659" class="cls-3" d="M105.3,75.2h0c-.2-.3-.4-.4-.5-.5-.8,2.6-1,5.1-1,5.2v10h2.5v-12.4c-.3-.9-.6-1.7-.9-2.2h0Z"/>
          </g>
          <g id="g9661">
            <path id="path9663" class="cls-3" d="M107.5,89.9h0v-6.1,6.1Z"/>
          </g>
          <g id="g9665">
            <path id="path9667" class="cls-3" d="M113.5,73.5s0,0,0,.2c0,0,.2.3.3.4,0-.2,0-.4-.2-.6"/>
          </g>
          <g id="g9669">
            <path id="path9671" class="cls-3" d="M102.5,74.3c0,.3,0,.6,0,.9,0-.3.3-.6.4-.9v-.6l-.9-.9c0,.5.2,1,.3,1.5"/>
          </g>
          <g id="g9673">
            <path id="path9675" class="cls-3" d="M108.6,84.6v5.3h2.1v-8.2c-.2-1.3-.4-2.4-.6-3.4-1.2,2.8-1.5,6.2-1.5,6.4"/>
          </g>
          <path id="path9677" class="cls-3" d="M193.1,71.2h-3.4v-4.1h3.4v4.1Z"/>
        </g>
      </g>
    </g>
  </g>
</svg>